<svg xmlns="http://www.w3.org/2000/svg" viewBox="0 0 48 48"><path d="M 12.5 6 C 10.57 6 9 7.57 9 9.5 L 9 31.056641 C 9.635 30.406641 10.519 30 11.5 30 L 12 30 L 12 23.626953 A 1.50015 1.50015 0 0 0 14.396484 24.501953 L 19.095703 21 L 21.876953 21 L 20.095703 28.285156 C 20.038703 28.515156 20 28.751047 20 28.998047 C 20 30.244482 20.760356 31.314194 21.841797 31.767578 L 27.125 34.480469 L 28.015625 40.712891 A 1.50015 1.50015 0 1 0 30.984375 40.287109 L 29.984375 33.287109 A 1.50015 1.50015 0 0 0 29.462891 32.351562 L 26.044922 29.150391 L 27.251953 24.257812 L 29.267578 27.15625 A 1.50015 1.50015 0 0 0 30.5 27.800781 L 36 27.800781 L 36 40.5 C 36 41.329 36.672 42 37.5 42 C 38.328 42 39 41.329 39 40.5 L 39 9.5 C 39 7.57 37.43 6 35.5 6 L 12.5 6 z M 12.5 9 L 35.5 9 C 35.775 9 36 9.224 36 9.5 L 36 24.800781 L 31.283203 24.800781 L 27.634766 19.552734 A 1.50015 1.50015 0 0 0 27.556641 19.449219 C 27.030581 18.583857 26.086529 18 24.998047 18 C 24.917682 18 24.842385 18.015258 24.763672 18.021484 A 1.50015 1.50015 0 0 0 24.5 18 L 18.599609 18 A 1.50015 1.50015 0 0 0 17.703125 18.296875 L 12.603516 22.097656 A 1.50015 1.50015 0 0 0 12 23.025391 L 12 9.5 C 12 9.224 12.225 9 12.5 9 z M 29.998047 12 C 28.342047 12 27 13.343047 27 14.998047 C 27 16.655047 28.342047 18 29.998047 18 C 31.657047 18 33 16.655047 33 14.998047 C 33 13.343047 31.657047 12 29.998047 12 z M 18.392578 30.917969 L 17.015625 32 L 11.5 32 C 10.672 32 10 32.671 10 33.5 C 10 34.329 10.672 35 11.5 35 L 17.5 35 C 17.815 35 18.122906 34.899844 18.378906 34.714844 L 21.154297 33.662109 L 20.992188 33.578125 C 19.788187 33.050125 18.877578 32.084969 18.392578 30.917969 z M 9 35.943359 L 9 40.5 C 9 41.329 9.672 42 10.5 42 C 11.328 42 12 41.329 12 40.5 L 12 37 L 11.5 37 C 10.519 37 9.635 36.593359 9 35.943359 z"></path></svg>