<svg xmlns="http://www.w3.org/2000/svg" viewBox="0 0 48 48"><path d="M 28.476562 0.97851562 A 1.50015 1.50015 0 0 0 27 2.5 L 27 6.5 A 1.50015 1.50015 0 1 0 30 6.5 L 30 2.5 A 1.50015 1.50015 0 0 0 28.476562 0.97851562 z M 22.476562 2.9785156 A 1.50015 1.50015 0 0 0 21 4.5 L 21 8.5 A 1.50015 1.50015 0 1 0 24 8.5 L 24 4.5 A 1.50015 1.50015 0 0 0 22.476562 2.9785156 z M 34.476562 2.9785156 A 1.50015 1.50015 0 0 0 33 4.5 L 33 8.5 A 1.50015 1.50015 0 1 0 36 8.5 L 36 4.5 A 1.50015 1.50015 0 0 0 34.476562 2.9785156 z M 28.5 10 C 24.37563 10 21 13.375633 21 17.5 C 21 21.624367 24.37563 25 28.5 25 C 32.62437 25 36 21.624367 36 17.5 C 36 13.375633 32.62437 10 28.5 10 z M 28.5 13 C 31.003051 13 33 14.99695 33 17.5 C 33 20.00305 31.003051 22 28.5 22 C 25.996949 22 24 20.00305 24 17.5 C 24 14.99695 25.996949 13 28.5 13 z M 41.613281 24.019531 C 40.493082 24.029231 39.429184 24.473279 38.484375 25.175781 C 37.470126 25.929243 34.418425 28.208042 31.777344 30.179688 C 31.204622 28.351508 29.505924 27 27.5 27 L 23.107422 27 C 20.296203 27 18.985532 26.772226 17.859375 26.533203 C 16.733218 26.29418 15.646783 26 13.826172 26 C 9.9413941 26 7.0123317 28.492986 5.09375 30.791016 C 3.1751683 33.089045 2.1347656 35.384766 2.1347656 35.384766 A 1.5002787 1.5002787 0 1 0 4.8652344 36.628906 C 4.8652344 36.628906 5.7643161 34.669814 7.3964844 32.714844 C 9.0286527 30.759873 11.25995 29 13.826172 29 C 15.347561 29 16.006735 29.20582 17.236328 29.466797 C 18.465921 29.727774 20.123641 30 23.107422 30 L 27.5 30 C 28.346499 30 29 30.653501 29 31.5 C 29 31.969499 28.794195 32.374296 28.470703 32.646484 C 28.470416 32.646699 28.429688 32.677734 28.429688 32.677734 A 1.5001988 1.5001988 0 0 0 28.345703 32.748047 A 1.5001988 1.5001988 0 0 0 28.34375 32.75 C 28.105295 32.908613 27.816466 33 27.5 33 L 20.5 33 A 1.50015 1.50015 0 1 0 20.5 36 L 27.5 36 C 28.440637 36 29.315307 35.701451 30.041016 35.199219 C 30.042186 35.198409 30.043753 35.198076 30.044922 35.197266 A 1.5001988 1.5001988 0 0 0 30.224609 35.082031 C 30.224609 35.082031 38.775959 28.696426 40.273438 27.583984 A 1.50015 1.50015 0 0 0 40.273438 27.582031 C 40.837627 27.162534 41.309824 27.022381 41.640625 27.019531 C 41.971426 27.016631 42.218287 27.096901 42.560547 27.439453 C 43.150922 28.029324 43.147391 28.935102 42.572266 29.533203 C 37.217133 34.036197 33.848465 37.036886 31.623047 38.794922 C 29.369881 40.574924 28.424996 41 27.5 41 C 23.847885 41 19.80067 40 15.5 40 C 13 40 11.242781 41.343609 10.300781 42.599609 C 9.3587815 43.855609 9.0449219 45.136719 9.0449219 45.136719 A 1.50015 1.50015 0 1 0 11.955078 45.863281 C 11.955078 45.863281 12.141219 45.144391 12.699219 44.400391 C 13.257219 43.656391 14 43 15.5 43 C 19.30733 43 23.336115 44 27.5 44 C 29.402004 44 31.084837 43.044435 33.482422 41.150391 C 35.849764 39.280238 39.175413 36.30991 44.498047 31.833984 A 1.50015 1.50015 0 0 0 44.681641 31.681641 C 44.688541 31.674741 44.690436 31.665143 44.697266 31.658203 L 44.701172 31.662109 L 44.753906 31.607422 A 1.50015 1.50015 0 0 0 45.083984 31.074219 C 46.330485 29.321792 46.248887 26.884269 44.681641 25.318359 C 43.8529 24.488911 42.73348 24.009881 41.613281 24.019531 z"></path></svg>