<svg xmlns="http://www.w3.org/2000/svg" viewBox="0 0 48 48"><path d="M 24.048828 2 A 1.50015 1.50015 0 0 0 22.998047 2.3847656 C 22.998047 2.3847656 15.490168 9 6.5 9 A 1.50015 1.50015 0 0 0 5 10.5 L 5 22.759766 C 5 29.437814 8.0894135 40.426402 23.417969 46.882812 A 1.50015 1.50015 0 0 0 24.582031 46.882812 C 39.910586 40.426403 43 29.437814 43 22.759766 L 43 10.5 A 1.50015 1.50015 0 0 0 41.5 9 C 32.509832 9 25.001953 2.3847656 25.001953 2.3847656 A 1.50015 1.50015 0 0 0 24.048828 2 z M 24 5.4277344 C 26.062966 7.0863651 32.111257 11.337189 40 11.875 L 40 22.759766 C 40 28.502023 37.793444 37.765684 24 43.826172 C 10.206556 37.765684 8 28.502023 8 22.759766 L 8 11.875 C 15.888743 11.337189 21.937034 7.0863651 24 5.4277344 z M 31.470703 17.986328 A 1.50015 1.50015 0 0 0 30.439453 18.439453 L 21.5 27.378906 L 17.560547 23.439453 A 1.50015 1.50015 0 1 0 15.439453 25.560547 L 20.439453 30.560547 A 1.50015 1.50015 0 0 0 22.560547 30.560547 L 32.560547 20.560547 A 1.50015 1.50015 0 0 0 31.470703 17.986328 z"></path></svg>