<?xml version="1.0" encoding="utf-8"?>
<!-- Generator: Adobe Illustrator 23.0.1, SVG Export Plug-In . SVG Version: 6.00 Build 0)  -->
<svg version="1.1" id="Capa_1" xmlns="http://www.w3.org/2000/svg" xmlns:xlink="http://www.w3.org/1999/xlink" x="0px" y="0px"
	 viewBox="0 0 504 504" style="enable-background:new 0 0 504 504;" xml:space="preserve">
<style type="text/css">
	.st0{fill-rule:evenodd;clip-rule:evenodd;}
</style>
<title>glyph-logo_May2016</title>
<desc>Created with Sketch.</desc>
<g id="Clip-2">
</g>
<g>
	<path class="st0" d="M502.3,148.2c-1.2-26.8-5.5-45.1-11.7-61.2c-6.4-16.6-15.1-30.6-29.1-44.6c-14-14-28.1-22.6-44.6-29.1
		c-16-6.2-34.3-10.5-61.2-11.7c-26.9-1.2-35.4-1.5-103.9-1.5c-68.4,0-77,0.3-103.9,1.5c-26.8,1.2-45.1,5.5-61.2,11.7
		c-16.6,6.4-30.6,15.1-44.6,29.1c-14,14-22.6,28.1-29.1,44.6c-6.2,16-10.5,34.3-11.7,61.2C0.3,175.1,0,183.7,0,252.1
		c0,68.4,0.3,77,1.5,103.9c1.2,26.8,5.5,45.1,11.7,61.2c6.4,16.6,15.1,30.6,29.1,44.6c14,14,28.1,22.6,44.6,29.1
		c16,6.2,34.3,10.5,61.2,11.7c26.9,1.2,35.4,1.5,103.9,1.5c68.4,0,77-0.3,103.9-1.5c26.8-1.2,45.1-5.5,61.2-11.7
		c16.6-6.4,30.6-15.1,44.6-29.1c14-14,22.6-28.1,29.1-44.6c6.2-16,10.5-34.3,11.7-61.2c1.2-26.9,1.5-35.4,1.5-103.9
		C503.8,183.7,503.6,175.1,502.3,148.2z M457,353.9c-1.1,24.6-5.2,37.9-8.7,46.8c-4.6,11.8-10,20.2-18.8,29
		c-8.8,8.8-17.2,14.3-29,18.8c-8.9,3.4-22.2,7.6-46.8,8.7c-26.6,1.2-34.5,1.5-101.8,1.5c-67.3,0-75.2-0.3-101.8-1.5
		c-24.6-1.1-37.9-5.2-46.8-8.7c-11.8-4.6-20.2-10-29-18.8c-8.8-8.8-14.3-17.2-18.8-29c-3.5-8.9-7.6-22.2-8.7-46.8
		c-1.2-26.6-1.5-34.5-1.5-101.8c0-67.3,0.3-75.2,1.5-101.8c1.1-24.6,5.2-37.9,8.7-46.8c4.6-11.8,10-20.2,18.8-29
		c8.8-8.8,17.2-14.3,29-18.8c8.9-3.5,22.2-7.6,46.8-8.7c26.6-1.2,34.5-1.5,101.8-1.5c67.3,0,75.2,0.3,101.8,1.5
		c24.6,1.1,37.9,5.2,46.8,8.7c11.8,4.6,20.2,10,29,18.8c8.8,8.8,14.3,17.2,18.8,29c3.5,8.9,7.6,22.2,8.7,46.8
		c1.2,26.6,1.5,34.5,1.5,101.8C458.5,319.3,458.2,327.3,457,353.9z"/>
	<path class="st0" d="M251.9,122.7c-71.4,0-129.4,57.9-129.4,129.4c0,71.4,57.9,129.4,129.4,129.4c71.4,0,129.4-57.9,129.4-129.4
		C381.3,180.6,323.4,122.7,251.9,122.7z M251.9,336.1c-46.4,0-84-37.6-84-84c0-46.4,37.6-84,84-84c46.4,0,84,37.6,84,84
		C335.9,298.5,298.3,336.1,251.9,336.1z"/>
	<path class="st0" d="M386.4,87.4c-16.7,0-30.2,13.5-30.2,30.2s13.5,30.2,30.2,30.2c16.7,0,30.2-13.5,30.2-30.2
		S403.1,87.4,386.4,87.4z"/>
</g>
</svg>
