<?xml version="1.0" encoding="utf-8"?>
<!-- Generator: Adobe Illustrator 23.0.1, SVG Export Plug-In . SVG Version: 6.00 Build 0)  -->
<svg version="1.1" id="Capa_1" xmlns="http://www.w3.org/2000/svg" xmlns:xlink="http://www.w3.org/1999/xlink" x="0px" y="0px"
	 viewBox="0 0 24 25" style="enable-background:new 0 0 24 25;" xml:space="preserve">
<path d="M21,6.4c1-0.6,1.7-1.5,2-2.6c-0.9,0.5-1.9,0.9-3,1.1c-0.8-0.9-2.1-1.5-3.4-1.5c-2.6,0-4.7,2.1-4.7,4.7c0,0.4,0,0.7,0.1,1.1
	C8.2,9,4.8,7.2,2.5,4.4C2.1,5,1.9,5.8,1.9,6.7c0,1.6,0.8,3,2.1,3.9c-0.8,0-1.5-0.2-2.1-0.6v0.1c0,2.3,1.6,4.1,3.7,4.6
	c-0.4,0.1-0.8,0.2-1.2,0.2c-0.3,0-0.6,0-0.9-0.1c0.6,1.8,2.3,3.2,4.4,3.2c-1.6,1.3-3.6,2-5.8,2c-0.4,0-0.7,0-1.1-0.1
	C3,21.2,5.4,22,8.1,22c8.6,0,13.3-7.1,13.3-13.3c0-0.2,0-0.4,0-0.6c0.9-0.7,1.7-1.5,2.3-2.4l0,0C22.8,6.1,21.9,6.3,21,6.4z"/>
</svg>
