<?xml version="1.0" encoding="utf-8"?>
<!-- Generator: Adobe Illustrator 23.0.1, SVG Export Plug-In . SVG Version: 6.00 Build 0)  -->
<svg version="1.1" id="Group_1282" xmlns="http://www.w3.org/2000/svg" xmlns:xlink="http://www.w3.org/1999/xlink" x="0px" y="0px"
	 viewBox="0 0 65 65" style="enable-background:new 0 0 65 65;" xml:space="preserve">
<path d="M60.1,0.1L60.1,0.1l-55.2,0c-2.6,0-4.7,2.1-4.8,4.7v55.4c0,2.6,2.2,4.7,4.8,4.7h55.2c2.6,0,4.8-2.1,4.8-4.7V4.8
	C64.9,2.2,62.7,0.1,60.1,0.1z M19.3,55.3H9.7V24.4h9.6V55.3z M14.5,20.2c-3.1,0-5.6-2.5-5.6-5.6S11.4,9,14.5,9
	c3.1,0,5.6,2.5,5.6,5.6S17.6,20.2,14.5,20.2z M55.3,55.3h-9.6v-15c0-3.6-0.1-8.2-5-8.2c-5,0-5.8,3.9-5.8,7.9v15.3h-9.6V24.4h9.2v4.2
	h0.1c1.9-3.2,5.4-5.1,9.1-5c9.7,0,11.5,6.4,11.5,14.7L55.3,55.3z"/>
</svg>
