<?xml version="1.0" encoding="utf-8"?>
<!-- Generator: Adobe Illustrator 23.0.1, SVG Export Plug-In . SVG Version: 6.00 Build 0)  -->
<svg version="1.1" id="Capa_1" xmlns="http://www.w3.org/2000/svg" xmlns:xlink="http://www.w3.org/1999/xlink" x="0px" y="0px"
	 viewBox="0 0 800 150.8" style="enable-background:new 0 0 800 150.8;" xml:space="preserve">
<style type="text/css">
	.st0{fill:#BB85FF;}
</style>
<g>
	<g>
		<path class="st0" d="M186,26.9c0-7.4,5.9-13.3,13.3-13.3c7.4,0,13.3,5.9,13.3,13.3v40.6l49.1-48.7c3.3-3.3,6.6-5.2,11.2-5.2
			c7.4,0,12.3,5.7,12.3,12.3c0,4.1-1.9,7.3-4.8,10l-34,31.8l37.1,46.6c2.1,2.6,3.6,5.4,3.6,9.3c0,7.4-5.7,13-13.5,13
			c-5.2,0-8.3-2.6-11.2-6.4L227.8,85l-15.2,14.2v24.2c0,7.4-5.9,13.3-13.3,13.3c-7.4,0-13.3-5.9-13.3-13.3V26.9z"/>
		<path class="st0" d="M300.3,21.6c0-7.3,5.9-13.1,13.1-13.1c7.3,0,13.1,5.9,13.1,13.1v101.9c0,7.3-5.9,13.1-13.1,13.1
			c-7.3,0-13.1-5.9-13.1-13.1V21.6z"/>
		<path class="st0" d="M341.5,89.8v-0.3c0-26.6,21.4-48.2,50.3-48.2c28.7,0,49.9,21.2,49.9,47.9v0.3c0,26.6-21.4,48.2-50.3,48.2
			C362.7,137.7,341.5,116.4,341.5,89.8z M415.7,89.8v-0.3c0-13.6-9.8-25.6-24.4-25.6c-15,0-24,11.6-24,25.2v0.3
			c0,13.6,9.8,25.6,24.4,25.6C406.8,115,415.7,103.5,415.7,89.8z"/>
		<path class="st0" d="M540.3,123.5c0,7.3-5.9,13.1-13.1,13.1s-13.1-5.9-13.1-13.1v-1c-6,7.8-13.8,14.9-27.1,14.9
			c-19.9,0-31.4-13.1-31.4-34.4V55.1c0-7.3,5.9-13.1,13.1-13.1c7.3,0,13.1,5.9,13.1,13.1v39.6c0,12.4,5.9,18.8,15.9,18.8
			c10,0,16.4-6.4,16.4-18.8V55.1c0-7.3,5.9-13.1,13.1-13.1s13.1,5.9,13.1,13.1V123.5z"/>
		<path class="st0" d="M558.1,126.8c-2.8-1.7-5-4.8-5-9c0-5.9,4.5-10.4,10.4-10.4c1.9,0,3.8,0.5,5.2,1.4c8.8,5.5,17.6,8.3,25.1,8.3
			c7.6,0,11.1-2.8,11.1-6.9v-0.3c0-5.7-9-7.6-19.2-10.7c-13-3.8-27.6-9.8-27.6-27.8V71c0-18.8,15.2-29.4,33.9-29.4
			c9.7,0,19.7,2.6,28.7,7.1c3.8,1.9,6.2,5.4,6.2,9.8c0,5.9-4.7,10.4-10.5,10.4c-1.9,0-3.1-0.3-4.8-1.2c-7.4-3.6-14.5-5.9-20-5.9
			c-6.4,0-9.7,2.8-9.7,6.4v0.3c0,5.2,8.8,7.6,18.8,11.1c13,4.3,28,10.5,28,27.5v0.3c0,20.6-15.4,29.9-35.4,29.9
			C581.6,137.3,569.3,134,558.1,126.8z"/>
		<path class="st0" d="M686.1,137.7c-27.8,0-48.4-19.5-48.4-47.9v-0.3c0-26.4,18.8-48.2,45.8-48.2c30.9,0,44.6,25.4,44.6,44.6
			c0,7.6-5.4,12.6-12.3,12.6h-52c2.6,11.9,10.9,18.1,22.6,18.1c7.3,0,13.3-2.2,18.7-6.2c1.9-1.4,3.6-2.1,6.4-2.1
			c5.9,0,10.2,4.5,10.2,10.4c0,3.5-1.6,6-3.5,7.8C710.2,133.3,699.6,137.7,686.1,137.7z M703.1,82c-1.6-11.7-8.5-19.7-19.5-19.7
			c-10.9,0-18,7.8-20,19.7H703.1z"/>
		<path class="st0" d="M743.2,55.1c0-7.3,5.9-13.1,13.1-13.1c7.3,0,13.1,5.9,13.1,13.1v4.1c3.8-9,10-17.3,17.8-17.3
			c8.1,0,12.8,5.4,12.8,12.8c0,6.9-4.5,11.1-9.8,12.3c-13.3,3.1-20.7,13.3-20.7,32v24.5c0,7.3-5.9,13.1-13.1,13.1
			c-7.3,0-13.1-5.9-13.1-13.1V55.1z"/>
	</g>
	<g>
		<path class="st0" d="M145,33.8c-3.3-11.6-15.8-24.5-27.4-28.3C105.2,1.8,92.7,0,80.2,0C67.6,0,55.1,1.8,42.5,5.5
			C31.1,9.2,18.6,22.1,15.3,34c-1.1,4-1.9,8.1-2.7,12.2c-0.9,5.2,3.2,10,8.5,10h0c4.1,0,7.7-2.9,8.4-6.9c0.7-3.6,1.4-7.2,2.4-10.7
			c1.8-6.1,10-14.7,15.8-16.5c21.6-6.4,43.5-6.4,65-0.1c6,1.9,14.2,10.5,15.9,16.4c6.4,24.6,6.4,49.6,0.1,74.1
			c-1.7,6.1-9.9,14.6-15.9,16.6c-21.6,6.3-43.5,6.3-64.8,0c-6-1.9-14.2-10.5-15.9-16.4c-0.9-3.6-1.7-7.3-2.4-10.9
			c-0.7-4-4.3-6.9-8.4-6.9h0c-5.3,0-9.4,4.8-8.5,10c0.7,4.1,1.6,8.2,2.7,12.4c3.3,11.6,15.8,24.5,27.4,28.3c24.8,7.3,50,7.3,74.8,0
			l0.2-0.1c11.4-3.7,23.9-16.6,27.3-28.4C152.2,89.3,152.2,61.5,145,33.8z"/>
		<g>
			<path class="st0" d="M8.6,66.8h86.6c4.7,0,8.6,3.8,8.6,8.6S99.9,84,95.1,84H8.6C3.8,84,0,80.1,0,75.4S3.8,66.8,8.6,66.8z"/>
		</g>
		<g>
			<path class="st0" d="M74.4,33.9c2.2,0,4.4,0.8,6,2.5l33,32.9c1.6,1.6,2.5,3.8,2.5,6.1s-0.9,4.5-2.5,6.1l-33,32.9
				c-3.4,3.3-8.8,3.3-12.1,0c-3.3-3.4-3.3-8.8,0-12.1l26.9-26.8L68.3,48.6c-3.4-3.3-3.4-8.8,0-12.1C70,34.8,72.2,33.9,74.4,33.9z"/>
		</g>
	</g>
</g>
</svg>
